<?xml version="1.0" encoding="UTF-8" standalone="no"?>
<svg
   xmlns:dc="http://purl.org/dc/elements/1.1/"
   xmlns:cc="http://creativecommons.org/ns#"
   xmlns:rdf="http://www.w3.org/1999/02/22-rdf-syntax-ns#"
   xmlns:svg="http://www.w3.org/2000/svg"
   xmlns="http://www.w3.org/2000/svg"
   xmlns:sodipodi="http://sodipodi.sourceforge.net/DTD/sodipodi-0.dtd"
   xmlns:inkscape="http://www.inkscape.org/namespaces/inkscape"
   version="1.1"
   id="Layer_1"
   x="0px"
   y="0px"
   width="100"
   height="100"
   viewBox="0 0 791.99998 792.00002"
   enable-background="new 0 0 612 792"
   xml:space="preserve"
   inkscape:version="0.48.3.1 r9886"
   sodipodi:docname="eye.svg"><metadata
   id="metadata11"><rdf:RDF><cc:Work
       rdf:about=""><dc:format>image/svg+xml</dc:format><dc:type
         rdf:resource="http://purl.org/dc/dcmitype/StillImage" /></cc:Work></rdf:RDF></metadata><defs
   id="defs9" /><sodipodi:namedview
   pagecolor="#ffffff"
   bordercolor="#666666"
   borderopacity="1"
   objecttolerance="10"
   gridtolerance="10"
   guidetolerance="10"
   inkscape:pageopacity="0"
   inkscape:pageshadow="2"
   inkscape:window-width="1130"
   inkscape:window-height="731"
   id="namedview7"
   showgrid="false"
   fit-margin-top="0"
   fit-margin-left="0"
   fit-margin-right="0"
   fit-margin-bottom="0"
   inkscape:zoom="2.36"
   inkscape:cx="-27.988455"
   inkscape:cy="51.729291"
   inkscape:window-x="0"
   inkscape:window-y="0"
   inkscape:window-maximized="0"
   inkscape:current-layer="Layer_1" />
<g
   id="g3"
   transform="matrix(5.0769883,0,0,5.0769887,-1089.7603,-1356.8044)">
	<path
   d="m 370.645,341.895 c 0,0 -31.399,54.199 -77.999,54.199 -46.599,0 -77.999,-54.199 -77.999,-54.199 0,0 31.399,-54.399 77.999,-54.399 46.599,0 77.999,54.399 77.999,54.399 z m -39.799,0 c 0,-21 -17.2,-38.199 -38.2,-38.199 -21,0 -38.199,17.2 -38.199,38.199 0,21 17.2,38.2 38.199,38.2 21,0 38.2,-17.2 38.2,-38.2 z m -38.2,-17.2 c -9.4,0 -17,8 -17,17.2 0,9.4 7.6,17 17,17 9.2,0 17.2,-7.6 17.2,-17 0,-9.2 -8,-17.2 -17.2,-17.2 z"
   id="path5"
   inkscape:connector-curvature="0" />
</g>
</svg>